<svg id="Layer_1" height="512" viewBox="0 0 128 128" width="512" xmlns="http://www.w3.org/2000/svg" data-name="Layer 1"><path d="m113.882 95.6-7.22-49.853a1.75 1.75 0 0 0 -1.732-1.5h-17.5l-1.347-6.657a22.532 22.532 0 0 0 -44.17 0l-1.347 6.657h-17.496a1.75 1.75 0 0 0 -1.732 1.5l-7.22 49.853a11.257 11.257 0 0 0 11.139 12.869h77.486a11.257 11.257 0 0 0 11.139-12.869zm-32.632-47.849v4.917a1.75 1.75 0 0 0 1.75 1.75h1.583v7.023a5.084 5.084 0 1 0 3.5 0v-7.023h1.584a1.75 1.75 0 0 0 1.75-1.75v-4.917h1.52l7.8 57.221h-73.475l7.8-57.221zm6.667 0v3.167h-3.167v-3.167zm-1.584 16.86a1.584 1.584 0 1 1 -1.583 1.583 1.586 1.586 0 0 1 1.583-1.583zm-40.988-26.324a19.033 19.033 0 0 1 37.31 0l1.206 5.964h-39.722zm-25.951 64.005a7.748 7.748 0 0 1 -1.812-6.192l7-48.353h6.948l-7.779 57.066a7.734 7.734 0 0 1 -4.357-2.521zm89.212 0a7.734 7.734 0 0 1 -4.357 2.525l-7.779-57.066h6.945l7 48.353a7.748 7.748 0 0 1 -1.809 6.188z"/></svg>